<svg width="76" height="80" viewBox="0 0 76 80" fill="none" xmlns="http://www.w3.org/2000/svg">
<path d="M0 0H76V38V61L66.5 70.5L57 80H38H0V0Z" fill="#D3FCFF"/>
<path fill-rule="evenodd" clip-rule="evenodd" d="M38.3754 23.838L52.175 30.7003C52.5125 30.8508 52.6629 31.1883 52.6629 31.5258C52.2875 37.6753 50.7125 42.6253 48.2375 46.6753C45.7625 50.7253 42.4253 53.8008 38.4498 56.1631C38.1503 56.3502 37.8128 56.3136 37.5498 56.1631C33.6121 53.8006 30.2375 50.7253 27.7621 46.6753C25.3251 42.5875 23.7499 37.6375 23.3744 31.4876C23.3365 31.1122 23.5615 30.8126 23.8624 30.6622L37.6241 23.8376C37.8491 23.6872 38.15 23.7251 38.375 23.8376L38.3754 23.838ZM39.3879 44.5002H36.5754C36.4629 44.5002 36.3884 44.4622 36.2759 44.4622C35.8259 44.3118 35.6009 43.8252 35.7514 43.3752L36.6514 40.8257C36.2014 40.6007 35.7894 40.2252 35.5264 39.8132C35.2269 39.3632 35.0384 38.8007 35.0384 38.2382C35.0384 37.4127 35.3759 36.7012 35.9004 36.1752C36.425 35.6507 37.1379 35.3132 37.9634 35.3132C38.7509 35.3132 39.5004 35.6507 40.0264 36.1752C40.5509 36.6997 40.8884 37.4127 40.8884 38.2382C40.8884 38.8007 40.7014 39.3632 40.4384 39.8132C40.1754 40.2252 39.7634 40.6007 39.3134 40.8257L40.1754 43.3387C40.2134 43.4512 40.25 43.5637 40.25 43.6762C40.25 44.1248 39.8745 44.5002 39.3879 44.5002V44.5002Z" fill="#00E1F0"/>
</svg>
