<svg width="72" height="73" viewBox="0 0 72 73" fill="none" xmlns="http://www.w3.org/2000/svg">
<rect y="0.5" width="72" height="72" rx="36" fill="#F4F5F7"/>
<path d="M29 25.5H26C25.7348 25.5 25.4804 25.6054 25.2929 25.7929C25.1054 25.9804 25 26.2348 25 26.5V46.5C25 46.7652 25.1054 47.0196 25.2929 47.2071C25.4804 47.3946 25.7348 47.5 26 47.5H29V25.5Z" fill="#D6B1FF"/>
<path d="M31 47.5H41V25.5H31V47.5ZM36 43.5C35.7348 43.5 35.4804 43.3946 35.2929 43.2071C35.1054 43.0196 35 42.7652 35 42.5C35 42.2348 35.1054 41.9804 35.2929 41.7929C35.4804 41.6054 35.7348 41.5 36 41.5C36.2652 41.5 36.5196 41.6054 36.7071 41.7929C36.8946 41.9804 37 42.2348 37 42.5C37 42.7652 36.8946 43.0196 36.7071 43.2071C36.5196 43.3946 36.2652 43.5 36 43.5ZM36 29.5C36.2652 29.5 36.5196 29.6054 36.7071 29.7929C36.8946 29.9804 37 30.2348 37 30.5C37 30.7652 36.8946 31.0196 36.7071 31.2071C36.5196 31.3946 36.2652 31.5 36 31.5C35.7348 31.5 35.4804 31.3946 35.2929 31.2071C35.1054 31.0196 35 30.7652 35 30.5C35 30.2348 35.1054 29.9804 35.2929 29.7929C35.4804 29.6054 35.7348 29.5 36 29.5ZM36 35.5C36.2652 35.5 36.5196 35.6054 36.7071 35.7929C36.8946 35.9804 37 36.2348 37 36.5C37 36.7652 36.8946 37.0196 36.7071 37.2071C36.5196 37.3946 36.2652 37.5 36 37.5C35.7348 37.5 35.4804 37.3946 35.2929 37.2071C35.1054 37.0196 35 36.7652 35 36.5C35 36.2348 35.1054 35.9804 35.2929 35.7929C35.4804 35.6054 35.7348 35.5 36 35.5Z" fill="#262262"/>
<path d="M46 25.5H43V47.5H46C46.2652 47.5 46.5196 47.3946 46.7071 47.2071C46.8946 47.0196 47 46.7652 47 46.5V26.5C47 26.2348 46.8946 25.9804 46.7071 25.7929C46.5196 25.6054 46.2652 25.5 46 25.5Z" fill="#F9B52D"/>
</svg>
