<svg width="72" height="73" viewBox="0 0 72 73" fill="none" xmlns="http://www.w3.org/2000/svg">
<rect y="0.5" width="72" height="72" rx="36" fill="#F4F5F7"/>
<path d="M33 34.5H26C25.7348 34.5 25.4804 34.3946 25.2929 34.2071C25.1054 34.0196 25 33.7652 25 33.5V26.5C25 26.2348 25.1054 25.9804 25.2929 25.7929C25.4804 25.6054 25.7348 25.5 26 25.5H33C33.2652 25.5 33.5196 25.6054 33.7071 25.7929C33.8946 25.9804 34 26.2348 34 26.5V33.5C34 33.7652 33.8946 34.0196 33.7071 34.2071C33.5196 34.3946 33.2652 34.5 33 34.5Z" fill="#262262"/>
<path d="M33 47.5H26C25.7348 47.5 25.4804 47.3946 25.2929 47.2071C25.1054 47.0196 25 46.7652 25 46.5V39.5C25 39.2348 25.1054 38.9804 25.2929 38.7929C25.4804 38.6054 25.7348 38.5 26 38.5H33C33.2652 38.5 33.5196 38.6054 33.7071 38.7929C33.8946 38.9804 34 39.2348 34 39.5V46.5C34 46.7652 33.8946 47.0196 33.7071 47.2071C33.5196 47.3946 33.2652 47.5 33 47.5Z" fill="#262262"/>
<path d="M37 26.5H47V28.5H37V26.5Z" fill="#F9B52D"/>
<path d="M47 39.5H37V41.5H47V39.5Z" fill="#F9B52D"/>
<path d="M47 44.5H37V46.5H47V44.5Z" fill="#D6B1FF"/>
<path d="M47 31.5H37V33.5H47V31.5Z" fill="#D6B1FF"/>
</svg>
