<svg width="76" height="80" viewBox="0 0 76 80" fill="none" xmlns="http://www.w3.org/2000/svg">
<path d="M0 0H76V38V61L66.5 70.5L57 80H38H0V0Z" fill="#FFF5E0"/>
<path d="M49.7205 38.6408H39.3205C38.8001 38.6408 38.4001 38.2408 38.4001 37.7204V27.3204C38.4001 26.8001 37.9595 26.3611 37.4408 26.4001C33.8408 26.6798 30.7204 28.5204 28.6408 31.2409C27.4408 30.5612 26.0408 30.1612 24.5612 30.1612C19.8408 30.1612 16.0408 34.0019 16.0408 38.6816C16.0408 43.3614 19.8814 47.202 24.5612 47.202C26.0815 47.202 27.4815 46.7614 28.7204 46.0817C30.961 49.002 34.4408 50.9225 38.2796 50.9613C44.8388 51.041 50.2 46.0409 50.6796 39.6409C50.7202 39.08 50.2796 38.6409 49.7202 38.6409L49.7205 38.6408ZM18.1597 38.6798C18.1597 35.1595 21.0003 32.3206 24.5189 32.3206C28.0392 32.3206 30.8781 35.1613 30.8781 38.6798C30.8781 42.2001 28.0374 45.039 24.5189 45.039C21.0001 45.0406 18.1597 42.1593 18.1597 38.6798Z" fill="#F9B52D"/>
<path d="M42.6797 23.0408C42.1594 23.0002 41.7203 23.4408 41.7203 23.9611V34.3611C41.7203 34.8815 42.1203 35.2815 42.6407 35.2815H53.0407C53.561 35.2815 54 34.8408 53.961 34.3221C53.5203 28.3205 48.7202 23.5205 42.6798 23.0409L42.6797 23.0408Z" fill="#F9B52D"/>
<path d="M24.8797 37.8796H24.2C24 37.8796 23.8406 37.8 23.6797 37.639C23.5594 37.4796 23.4797 37.3187 23.5203 37.1187C23.5609 36.7593 23.8797 36.5187 24.2406 36.5187H25C25.2 36.5187 25.3594 36.639 25.4 36.839C25.4406 36.9984 25.5594 37.1187 25.7594 37.1187H26.639C26.7593 37.1187 26.839 37.0781 26.9187 36.9984C26.9984 36.9187 26.9984 36.839 26.9984 36.7187C26.9187 35.7984 26.1984 35.0781 25.3187 34.9593V34.239C25.3187 34.039 25.1594 33.8796 24.9594 33.8796H24.0797C23.8797 33.8796 23.7203 34.039 23.7203 34.239V34.9999C22.6 35.2406 21.8 36.2796 21.9203 37.4406C22.0406 38.5999 23.0406 39.4812 24.2406 39.4812H24.8C25 39.4812 25.1594 39.5609 25.3203 39.7218C25.4406 39.8812 25.5203 40.0422 25.4797 40.2422C25.439 40.6015 25.1203 40.8422 24.7594 40.8422H24C23.8 40.8422 23.6406 40.7218 23.6 40.5218C23.5594 40.3625 23.4406 40.2422 23.2406 40.2422H22.3609C22.2406 40.2422 22.1609 40.2828 22.0812 40.3625C22.0016 40.4422 22.0016 40.5218 22.0016 40.6422C22.0812 41.5625 22.8016 42.2828 23.6812 42.4015V43.1218C23.6812 43.3218 23.8406 43.4812 24.0406 43.4812H24.9203C25.1203 43.4812 25.2797 43.3218 25.2797 43.1218V42.3625C26.239 42.1219 26.9594 41.3625 27.0797 40.4031C27.1594 39.7625 26.9203 39.1234 26.5203 38.6438C26.1203 38.1594 25.5203 37.8797 24.8797 37.8797V37.8796Z" fill="#F9B52D"/>
</svg>
