<svg width="72" height="73" viewBox="0 0 72 73" fill="none" xmlns="http://www.w3.org/2000/svg">
<rect y="0.5" width="72" height="72" rx="36" fill="#F4F5F7"/>
<g clip-path="url(#clip0_10_73)">
<path d="M42 34.5H48L45 30.5L42 34.5ZM42 38.5H48L45 42.5L42 38.5Z" fill="#D6B1FF"/>
<path d="M25 24.5H31V48.5H25C24.7348 48.5 24.4804 48.3946 24.2929 48.2071C24.1054 48.0196 24 47.7652 24 47.5V25.5C24 25.2348 24.1054 24.9804 24.2929 24.7929C24.4804 24.6054 24.7348 24.5 25 24.5Z" fill="#262262"/>
<path d="M33 24.5H39C39.2652 24.5 39.5196 24.6054 39.7071 24.7929C39.8946 24.9804 40 25.2348 40 25.5V47.5C40 47.7652 39.8946 48.0196 39.7071 48.2071C39.5196 48.3946 39.2652 48.5 39 48.5H33V24.5Z" fill="#F9B52D"/>
</g>
<defs>
<clipPath id="clip0_10_73">
<rect width="24" height="24" fill="white" transform="translate(24 24.5)"/>
</clipPath>
</defs>
</svg>
