<svg width="76" height="80" viewBox="0 0 76 80" fill="none" xmlns="http://www.w3.org/2000/svg">
<path d="M0 0H76V38V61L66.5 70.5L57 80H38H0V0Z" fill="#E2E1FF"/>
<path d="M26.5729 48.0831C26.9385 48.0831 27.2985 47.9875 27.6163 47.8046C26.7121 46.7542 26.7121 45.1989 27.6163 44.1485C27.0482 43.8236 26.3619 43.7815 25.7586 44.0346C25.1553 44.2863 24.7039 44.8052 24.5366 45.4366C24.3693 46.0694 24.5043 46.743 24.9036 47.2619C25.3016 47.7794 25.9189 48.0831 26.5728 48.0831L26.5729 48.0831Z" fill="#262262"/>
<path d="M28.6792 45.9767C28.6792 47.8203 27.64 47.8203 27.64 45.9767C27.64 44.1331 28.6792 44.1331 28.6792 45.9767Z" fill="#262262"/>
<path d="M37.6119 44.7109H51.5339V47.2422H37.6119V44.7109Z" fill="#262262"/>
<path d="M29.7466 48.083C30.402 48.083 31.0193 47.7807 31.4187 47.2618C31.8166 46.7429 31.953 46.0693 31.7857 45.4365C31.6169 44.8037 31.1655 44.2848 30.5609 44.0331C29.9576 43.7813 29.2713 43.8235 28.7032 44.1484C29.6074 45.1989 29.6074 46.7542 28.7032 47.8045C29.021 47.9874 29.381 48.083 29.7466 48.083L29.7466 48.083Z" fill="#262262"/>
<path d="M21.6172 33.8505H54.3829V38.1409H21.6172V33.8505Z" fill="#262262"/>
<path d="M21.6172 51.4976H54.3829V38.8444H21.6172V51.4976ZM36.9089 44.3596C36.9089 44.1655 37.0664 44.008 37.2605 44.008H51.8855C51.9783 44.008 52.0683 44.0446 52.1344 44.1107C52.2005 44.1767 52.237 44.2667 52.237 44.3596V47.5939C52.237 47.6868 52.2005 47.7768 52.1344 47.8429C52.0683 47.9089 51.9783 47.9455 51.8855 47.9455H37.2605C37.0664 47.9455 36.9089 47.788 36.9089 47.594V44.3596ZM26.5729 43.1671C27.1397 43.1671 27.6937 43.3386 28.1592 43.6607C29.0198 43.07 30.1364 43.0053 31.0589 43.4905C31.9814 43.9771 32.5594 44.9333 32.5594 45.9767C32.5594 47.0202 31.9814 47.9764 31.0589 48.463C30.1364 48.9481 29.0198 48.8834 28.1606 48.2928H28.1592C27.4237 48.7976 26.4914 48.9228 25.649 48.6289C24.8052 48.3364 24.1528 47.66 23.8884 46.8078C23.624 45.9542 23.7815 45.0275 24.3117 44.3089C24.8404 43.5917 25.68 43.167 26.5729 43.167L26.5729 43.1671Z" fill="#262262"/>
<path d="M21.6172 28.5023V33.147H54.3829V28.5023H21.6172ZM24.2961 30.9731H23.2569V30.27H24.2961V30.9731ZM31.8194 30.9731H25.127V30.27H31.8194V30.9731Z" fill="#262262"/>
</svg>
