<svg width="174" height="55" viewBox="0 0 174 55" fill="none" xmlns="http://www.w3.org/2000/svg">
<rect width="174" height="55" rx="10" fill="#262262"/>
<path d="M59.595 33C59.5043 33 59.4193 32.966 59.34 32.898C59.272 32.83 59.238 32.745 59.238 32.643C59.238 32.5977 59.2493 32.5467 59.272 32.49L63.369 21.525C63.403 21.4117 63.4653 21.3153 63.556 21.236C63.658 21.1453 63.794 21.1 63.964 21.1H65.817C65.987 21.1 66.1173 21.1453 66.208 21.236C66.2987 21.3153 66.3667 21.4117 66.412 21.525L70.509 32.49C70.5203 32.5467 70.526 32.5977 70.526 32.643C70.526 32.745 70.492 32.83 70.424 32.898C70.356 32.966 70.2767 33 70.186 33H68.707C68.5483 33 68.4293 32.966 68.35 32.898C68.282 32.8187 68.2367 32.745 68.214 32.677L67.415 30.603H62.366L61.567 32.677C61.5443 32.745 61.4933 32.8187 61.414 32.898C61.346 32.966 61.2327 33 61.074 33H59.595ZM62.961 28.648H66.82L64.882 23.395L62.961 28.648ZM72.3341 36.23C72.2208 36.23 72.1244 36.1903 72.0451 36.111C71.9658 36.0317 71.9261 35.9353 71.9261 35.822V24.568C71.9261 24.4547 71.9658 24.3583 72.0451 24.279C72.1244 24.1997 72.2208 24.16 72.3341 24.16H73.6771C73.8018 24.16 73.8981 24.1997 73.9661 24.279C74.0454 24.3583 74.0851 24.4547 74.0851 24.568V25.248C74.3571 24.8853 74.7141 24.585 75.1561 24.347C75.5981 24.109 76.1478 23.99 76.8051 23.99C77.4058 23.99 77.9271 24.0863 78.3691 24.279C78.8111 24.4717 79.1794 24.7493 79.4741 25.112C79.7688 25.4633 79.9954 25.8827 80.1541 26.37C80.3128 26.8573 80.4034 27.3957 80.4261 27.985C80.4374 28.1777 80.4431 28.376 80.4431 28.58C80.4431 28.784 80.4374 28.988 80.4261 29.192C80.4148 29.7587 80.3298 30.2857 80.1711 30.773C80.0124 31.249 79.7801 31.6683 79.4741 32.031C79.1794 32.3823 78.8111 32.66 78.3691 32.864C77.9271 33.068 77.4058 33.17 76.8051 33.17C76.1931 33.17 75.6718 33.0623 75.2411 32.847C74.8104 32.6203 74.4591 32.3257 74.1871 31.963V35.822C74.1871 35.9353 74.1474 36.0317 74.0681 36.111C74.0001 36.1903 73.9038 36.23 73.7791 36.23H72.3341ZM76.1761 31.351C76.6634 31.351 77.0431 31.249 77.3151 31.045C77.5871 30.8297 77.7798 30.552 77.8931 30.212C78.0178 29.872 78.0914 29.498 78.1141 29.09C78.1368 28.75 78.1368 28.41 78.1141 28.07C78.0914 27.662 78.0178 27.288 77.8931 26.948C77.7798 26.608 77.5871 26.336 77.3151 26.132C77.0431 25.9167 76.6634 25.809 76.1761 25.809C75.7114 25.809 75.3318 25.9167 75.0371 26.132C74.7538 26.3473 74.5441 26.625 74.4081 26.965C74.2834 27.2937 74.2098 27.6337 74.1871 27.985C74.1758 28.189 74.1701 28.4043 74.1701 28.631C74.1701 28.8577 74.1758 29.0787 74.1871 29.294C74.1984 29.634 74.2778 29.9627 74.4251 30.28C74.5724 30.586 74.7878 30.841 75.0711 31.045C75.3544 31.249 75.7228 31.351 76.1761 31.351ZM82.7765 36.23C82.6632 36.23 82.5668 36.1903 82.4875 36.111C82.4082 36.0317 82.3685 35.9353 82.3685 35.822V24.568C82.3685 24.4547 82.4082 24.3583 82.4875 24.279C82.5668 24.1997 82.6632 24.16 82.7765 24.16H84.1195C84.2442 24.16 84.3405 24.1997 84.4085 24.279C84.4878 24.3583 84.5275 24.4547 84.5275 24.568V25.248C84.7995 24.8853 85.1565 24.585 85.5985 24.347C86.0405 24.109 86.5902 23.99 87.2475 23.99C87.8482 23.99 88.3695 24.0863 88.8115 24.279C89.2535 24.4717 89.6218 24.7493 89.9165 25.112C90.2112 25.4633 90.4378 25.8827 90.5965 26.37C90.7552 26.8573 90.8458 27.3957 90.8685 27.985C90.8798 28.1777 90.8855 28.376 90.8855 28.58C90.8855 28.784 90.8798 28.988 90.8685 29.192C90.8572 29.7587 90.7722 30.2857 90.6135 30.773C90.4548 31.249 90.2225 31.6683 89.9165 32.031C89.6218 32.3823 89.2535 32.66 88.8115 32.864C88.3695 33.068 87.8482 33.17 87.2475 33.17C86.6355 33.17 86.1142 33.0623 85.6835 32.847C85.2528 32.6203 84.9015 32.3257 84.6295 31.963V35.822C84.6295 35.9353 84.5898 36.0317 84.5105 36.111C84.4425 36.1903 84.3462 36.23 84.2215 36.23H82.7765ZM86.6185 31.351C87.1058 31.351 87.4855 31.249 87.7575 31.045C88.0295 30.8297 88.2222 30.552 88.3355 30.212C88.4602 29.872 88.5338 29.498 88.5565 29.09C88.5792 28.75 88.5792 28.41 88.5565 28.07C88.5338 27.662 88.4602 27.288 88.3355 26.948C88.2222 26.608 88.0295 26.336 87.7575 26.132C87.4855 25.9167 87.1058 25.809 86.6185 25.809C86.1538 25.809 85.7742 25.9167 85.4795 26.132C85.1962 26.3473 84.9865 26.625 84.8505 26.965C84.7258 27.2937 84.6522 27.6337 84.6295 27.985C84.6182 28.189 84.6125 28.4043 84.6125 28.631C84.6125 28.8577 84.6182 29.0787 84.6295 29.294C84.6408 29.634 84.7202 29.9627 84.8675 30.28C85.0148 30.586 85.2302 30.841 85.5135 31.045C85.7968 31.249 86.1652 31.351 86.6185 31.351ZM101.014 33.17C99.9596 33.17 99.0756 33.017 98.3616 32.711C97.659 32.3937 97.1206 31.9857 96.7466 31.487C96.384 30.977 96.1913 30.4443 96.1686 29.889C96.1686 29.787 96.2026 29.702 96.2706 29.634C96.3386 29.566 96.4236 29.532 96.5256 29.532H98.0386C98.186 29.532 98.2936 29.566 98.3616 29.634C98.441 29.6907 98.509 29.7643 98.5656 29.855C98.6336 30.0703 98.764 30.2857 98.9566 30.501C99.1493 30.705 99.41 30.875 99.7386 31.011C100.079 31.147 100.504 31.215 101.014 31.215C101.83 31.215 102.436 31.079 102.833 30.807C103.241 30.535 103.445 30.1667 103.445 29.702C103.445 29.3733 103.337 29.1127 103.122 28.92C102.906 28.716 102.572 28.5347 102.119 28.376C101.677 28.206 101.087 28.0303 100.351 27.849C99.5006 27.645 98.7866 27.4013 98.2086 27.118C97.642 26.8233 97.2113 26.455 96.9166 26.013C96.6333 25.571 96.4916 25.01 96.4916 24.33C96.4916 23.6727 96.6673 23.089 97.0186 22.579C97.3813 22.069 97.8913 21.6667 98.5486 21.372C99.2173 21.0773 100.011 20.93 100.929 20.93C101.665 20.93 102.317 21.032 102.884 21.236C103.45 21.4287 103.921 21.6893 104.295 22.018C104.669 22.3353 104.952 22.681 105.145 23.055C105.349 23.4177 105.456 23.7747 105.468 24.126C105.468 24.2167 105.434 24.3017 105.366 24.381C105.309 24.449 105.224 24.483 105.111 24.483H103.53C103.439 24.483 103.348 24.4603 103.258 24.415C103.167 24.3697 103.093 24.2847 103.037 24.16C102.969 23.8087 102.748 23.5083 102.374 23.259C102 23.0097 101.518 22.885 100.929 22.885C100.317 22.885 99.8236 22.9983 99.4496 23.225C99.0756 23.4517 98.8886 23.803 98.8886 24.279C98.8886 24.5963 98.9793 24.8627 99.1606 25.078C99.3533 25.282 99.6536 25.4633 100.062 25.622C100.481 25.7807 101.031 25.9507 101.711 26.132C102.674 26.3473 103.462 26.5967 104.074 26.88C104.686 27.1633 105.133 27.526 105.417 27.968C105.7 28.3987 105.842 28.9483 105.842 29.617C105.842 30.365 105.638 31.0053 105.23 31.538C104.833 32.0593 104.272 32.4617 103.547 32.745C102.821 33.0283 101.977 33.17 101.014 33.17ZM111.581 33C110.901 33 110.329 32.881 109.864 32.643C109.399 32.405 109.054 32.0537 108.827 31.589C108.6 31.113 108.487 30.5237 108.487 29.821V25.962H107.144C107.031 25.962 106.934 25.9223 106.855 25.843C106.776 25.7637 106.736 25.6673 106.736 25.554V24.568C106.736 24.4547 106.776 24.3583 106.855 24.279C106.934 24.1997 107.031 24.16 107.144 24.16H108.487V21.338C108.487 21.2247 108.521 21.1283 108.589 21.049C108.668 20.9697 108.77 20.93 108.895 20.93H110.272C110.385 20.93 110.482 20.9697 110.561 21.049C110.64 21.1283 110.68 21.2247 110.68 21.338V24.16H112.805C112.918 24.16 113.015 24.1997 113.094 24.279C113.173 24.3583 113.213 24.4547 113.213 24.568V25.554C113.213 25.6673 113.173 25.7637 113.094 25.843C113.015 25.9223 112.918 25.962 112.805 25.962H110.68V29.651C110.68 30.1157 110.759 30.4783 110.918 30.739C111.088 30.9997 111.377 31.13 111.785 31.13H112.958C113.071 31.13 113.168 31.1697 113.247 31.249C113.326 31.3283 113.366 31.4247 113.366 31.538V32.592C113.366 32.7053 113.326 32.8017 113.247 32.881C113.168 32.9603 113.071 33 112.958 33H111.581ZM118.784 33.17C117.877 33.17 117.112 33.0113 116.489 32.694C115.877 32.3767 115.407 31.929 115.078 31.351C114.761 30.773 114.579 30.0987 114.534 29.328C114.523 29.124 114.517 28.8747 114.517 28.58C114.517 28.2853 114.523 28.036 114.534 27.832C114.579 27.05 114.766 26.3757 115.095 25.809C115.435 25.231 115.911 24.7833 116.523 24.466C117.146 24.1487 117.9 23.99 118.784 23.99C119.668 23.99 120.416 24.1487 121.028 24.466C121.651 24.7833 122.127 25.231 122.456 25.809C122.796 26.3757 122.989 27.05 123.034 27.832C123.045 28.036 123.051 28.2853 123.051 28.58C123.051 28.8747 123.045 29.124 123.034 29.328C122.989 30.0987 122.802 30.773 122.473 31.351C122.156 31.929 121.685 32.3767 121.062 32.694C120.45 33.0113 119.691 33.17 118.784 33.17ZM118.784 31.487C119.385 31.487 119.849 31.3 120.178 30.926C120.507 30.5407 120.688 29.9797 120.722 29.243C120.733 29.073 120.739 28.852 120.739 28.58C120.739 28.308 120.733 28.087 120.722 27.917C120.688 27.1917 120.507 26.6363 120.178 26.251C119.849 25.8657 119.385 25.673 118.784 25.673C118.183 25.673 117.719 25.8657 117.39 26.251C117.061 26.6363 116.88 27.1917 116.846 27.917C116.835 28.087 116.829 28.308 116.829 28.58C116.829 28.852 116.835 29.073 116.846 29.243C116.88 29.9797 117.061 30.5407 117.39 30.926C117.719 31.3 118.183 31.487 118.784 31.487ZM125.343 33C125.229 33 125.133 32.9603 125.054 32.881C124.974 32.8017 124.934 32.7053 124.934 32.592V24.585C124.934 24.4603 124.974 24.3583 125.054 24.279C125.133 24.1997 125.229 24.16 125.343 24.16H126.72C126.833 24.16 126.929 24.1997 127.009 24.279C127.099 24.3583 127.145 24.4603 127.145 24.585V25.282C127.405 24.9193 127.74 24.6417 128.148 24.449C128.567 24.2563 129.049 24.16 129.593 24.16H130.29C130.414 24.16 130.511 24.1997 130.579 24.279C130.658 24.3583 130.698 24.4547 130.698 24.568V25.792C130.698 25.9053 130.658 26.0017 130.579 26.081C130.511 26.1603 130.414 26.2 130.29 26.2H128.964C128.42 26.2 127.995 26.353 127.689 26.659C127.394 26.965 127.247 27.3843 127.247 27.917V32.592C127.247 32.7053 127.207 32.8017 127.128 32.881C127.048 32.9603 126.946 33 126.822 33H125.343ZM135.715 33.17C134.457 33.17 133.46 32.8073 132.723 32.082C131.986 31.3567 131.59 30.3253 131.533 28.988C131.522 28.8747 131.516 28.733 131.516 28.563C131.516 28.3817 131.522 28.24 131.533 28.138C131.578 27.288 131.771 26.5513 132.111 25.928C132.462 25.3047 132.944 24.8287 133.556 24.5C134.168 24.16 134.888 23.99 135.715 23.99C136.633 23.99 137.404 24.1827 138.027 24.568C138.65 24.942 139.121 25.469 139.438 26.149C139.755 26.8177 139.914 27.594 139.914 28.478V28.835C139.914 28.9483 139.874 29.0447 139.795 29.124C139.716 29.2033 139.614 29.243 139.489 29.243H133.845C133.845 29.243 133.845 29.26 133.845 29.294C133.845 29.328 133.845 29.3563 133.845 29.379C133.856 29.7757 133.93 30.144 134.066 30.484C134.213 30.8127 134.423 31.079 134.695 31.283C134.978 31.487 135.313 31.589 135.698 31.589C136.015 31.589 136.282 31.5437 136.497 31.453C136.712 31.351 136.888 31.2377 137.024 31.113C137.16 30.9883 137.256 30.8863 137.313 30.807C137.415 30.671 137.494 30.5917 137.551 30.569C137.619 30.535 137.715 30.518 137.84 30.518H139.302C139.415 30.518 139.506 30.552 139.574 30.62C139.653 30.688 139.687 30.773 139.676 30.875C139.665 31.0563 139.568 31.2773 139.387 31.538C139.217 31.7987 138.968 32.0537 138.639 32.303C138.31 32.5523 137.897 32.762 137.398 32.932C136.911 33.0907 136.35 33.17 135.715 33.17ZM133.845 27.815H137.602V27.764C137.602 27.322 137.528 26.9367 137.381 26.608C137.234 26.2793 137.018 26.0187 136.735 25.826C136.452 25.6333 136.112 25.537 135.715 25.537C135.318 25.537 134.978 25.6333 134.695 25.826C134.412 26.0187 134.196 26.2793 134.049 26.608C133.913 26.9367 133.845 27.322 133.845 27.764V27.815Z" fill="white"/>
<path d="M48.7068 27.1249C48.6963 25.3267 49.511 23.9714 51.1563 22.9721C50.2361 21.6537 48.8439 20.9286 47.0088 20.7889C45.2712 20.6518 43.3701 21.8014 42.674 21.8014C41.9384 21.8014 40.2562 20.8363 38.9325 20.8363C36.2009 20.8785 33.2979 23.0143 33.2979 27.3596C33.2979 28.6437 33.5325 29.9699 34.0019 31.3357C34.6294 33.134 36.8917 37.5399 39.2516 37.4688C40.4855 37.4397 41.3583 36.5934 42.9641 36.5934C44.5224 36.5934 45.3292 37.4688 46.7056 37.4688C49.0865 37.4345 51.1326 33.4293 51.7285 31.6258C48.5354 30.1202 48.7068 27.2172 48.7068 27.1249ZM45.9356 19.0829C47.2725 17.4956 47.1512 16.0507 47.1116 15.5312C45.9304 15.5998 44.5646 16.3354 43.7867 17.2398C42.9298 18.2102 42.4262 19.4099 42.5343 20.7625C43.8104 20.8601 44.9759 20.2035 45.9356 19.0829Z" fill="white"/>
</svg>
