<svg width="135" height="40" viewBox="0 0 135 40" fill="none" xmlns="http://www.w3.org/2000/svg">
<g clip-path="url(#clip0_141:1689)">
<path d="M124.249 7.92969e-06H10.7566C10.3429 7.92969e-06 9.9342 7.92975e-06 9.5216 0.00200793C9.17621 0.00400793 8.83358 0.00981793 8.48488 0.0147079C7.72733 0.0226097 6.97157 0.0816842 6.22416 0.191418C5.4778 0.303541 4.75482 0.514924 4.07967 0.818418C3.40534 1.12448 2.7892 1.52218 2.25357 1.99708C1.71514 2.47064 1.26632 3.01802 0.924356 3.61817C0.581453 4.21712 0.343683 4.85895 0.219258 5.52149C0.0936495 6.18319 0.0260586 6.85253 0.0170916 7.52349C0.00662229 7.83009 0.00551669 8.13771 0 8.44435V31.5586C0.00551669 31.8691 0.00662229 32.1699 0.0170916 32.4805C0.0260614 33.1514 0.0936522 33.8207 0.219258 34.4824C0.343339 35.1453 0.581124 35.7875 0.924356 36.3867C1.26616 36.9849 1.71505 37.5301 2.25357 38.001C2.78717 38.478 3.40371 38.876 4.07967 39.1797C4.75481 39.484 5.47772 39.6967 6.22416 39.8105C6.9717 39.9194 7.72738 39.9785 8.48488 39.9873C8.83358 39.9941 9.17621 39.998 9.5216 39.998C9.93419 40 10.343 40 10.7566 40H124.249C124.655 40 125.067 40 125.472 39.998C125.816 39.998 126.169 39.9941 126.512 39.9873C127.268 39.9789 128.023 39.9198 128.769 39.8105C129.518 39.6959 130.243 39.4833 130.921 39.1797C131.597 38.8758 132.213 38.4779 132.746 38.001C133.283 37.5282 133.733 36.9835 134.079 36.3867C134.42 35.7871 134.655 35.145 134.777 34.4824C134.903 33.8206 134.973 33.1515 134.987 32.4805C134.991 32.1699 134.991 31.8691 134.991 31.5586C135 31.1953 135 30.834 135 30.4648V9.53614C135 9.16993 135 8.80665 134.991 8.44435C134.991 8.13771 134.991 7.83009 134.987 7.52345C134.973 6.85243 134.903 6.18324 134.777 5.52145C134.655 4.85929 134.419 4.21751 134.079 3.61813C133.383 2.4152 132.278 1.43603 130.921 0.818328C130.243 0.515575 129.518 0.304248 128.769 0.191328C128.023 0.0811107 127.269 0.0220157 126.512 0.0145679C126.169 0.00968793 125.816 0.00382793 125.472 0.00187793C125.067 -0.00012207 124.655 -0.00012207 124.249 -0.00012207V7.92969e-06Z" fill="white"/>
<path d="M9.43001 39.128C9.08569 39.128 8.74969 39.1241 8.40807 39.1173C7.70037 39.1091 6.99433 39.0546 6.29574 38.9542C5.64433 38.8549 5.0133 38.6702 4.42345 38.4061C3.839 38.1443 3.30594 37.801 2.84469 37.3893C2.37676 36.9825 1.98718 36.5107 1.6914 35.9925C1.39236 35.471 1.18541 34.912 1.07775 34.335C0.961494 33.715 0.898592 33.088 0.889592 32.4596C0.882427 32.2487 0.873047 31.5463 0.873047 31.5463V8.44092C0.873047 8.44092 0.883037 7.74936 0.889648 7.54619C0.898266 6.91874 0.960802 6.29278 1.07671 5.67373C1.18457 5.09513 1.39168 4.53451 1.69088 4.01128C1.98557 3.49349 2.37299 3.02131 2.8381 2.61304C3.30269 2.20089 3.83745 1.85581 4.42289 1.59036C5.01139 1.32718 5.64123 1.14378 6.29132 1.0463C6.99221 0.944847 7.7007 0.889995 8.41085 0.882208L9.43056 0.869995H125.57L126.602 0.882698C127.306 0.890099 128.008 0.944461 128.702 1.04532C129.359 1.14403 129.995 1.32871 130.59 1.59329C131.763 2.12824 132.718 2.9746 133.32 4.01372C133.614 4.53334 133.818 5.08938 133.924 5.66299C134.042 6.28712 134.107 6.918 134.121 7.55059C134.124 7.83385 134.124 8.13811 134.124 8.44092C134.133 8.816 134.133 9.173 134.133 9.53294V30.466C134.133 30.8294 134.133 31.1839 134.124 31.5414C134.124 31.8667 134.124 32.1646 134.12 32.4713C134.107 33.0926 134.042 33.7122 133.927 34.3252C133.821 34.9064 133.615 35.4697 133.316 35.9955C133.018 36.5081 132.631 36.9758 132.169 37.3815C131.707 37.7954 131.173 38.1407 130.587 38.4042C129.994 38.6703 129.358 38.8557 128.702 38.9542C128.004 39.0551 127.297 39.1097 126.59 39.1173C126.259 39.1241 125.912 39.128 125.576 39.128L124.35 39.13L9.43001 39.128Z" fill="#000C29"/>
<path d="M32.7973 20.3007C32.8081 19.466 33.0298 18.6477 33.4418 17.9217C33.8538 17.1957 34.4428 16.5858 35.1539 16.1486C34.7021 15.5035 34.1062 14.9725 33.4134 14.598C32.7205 14.2234 31.9499 14.0156 31.1627 13.991C29.4835 13.8147 27.8555 14.9958 26.9998 14.9958C26.1275 14.9958 24.81 14.0085 23.3913 14.0376C22.4736 14.0673 21.5793 14.3341 20.7954 14.8122C20.0115 15.2903 19.3649 15.9632 18.9184 16.7655C16.9844 20.1139 18.427 25.035 20.2796 27.7416C21.2065 29.0669 22.2898 30.5474 23.7072 30.4949C25.0943 30.4374 25.6123 29.6104 27.2866 29.6104C28.9454 29.6104 29.4314 30.4949 30.8776 30.4615C32.366 30.4374 33.3038 29.1303 34.1981 27.7924C34.8641 26.848 35.3766 25.8043 35.7166 24.6999C34.8518 24.3341 34.1139 23.722 33.5948 22.9397C33.0757 22.1574 32.7983 21.2396 32.7973 20.3007Z" fill="white"/>
<path d="M30.0659 12.2109C30.8774 11.2367 31.2772 9.98451 31.1804 8.72028C29.9406 8.8505 28.7953 9.44306 27.9728 10.3799C27.5707 10.8376 27.2627 11.37 27.0664 11.9468C26.8702 12.5235 26.7896 13.1333 26.8291 13.7413C27.4493 13.7477 28.0628 13.6132 28.6234 13.3482C29.1841 13.0831 29.6773 12.6942 30.0659 12.2109Z" fill="white"/>
<path d="M50.3306 27.1396H45.5972L44.4604 30.4961H42.4556L46.939 18.0781H49.022L53.5054 30.4961H51.4663L50.3306 27.1396ZM46.0874 25.5908H49.8394L47.9898 20.1435H47.938L46.0874 25.5908Z" fill="white"/>
<path d="M63.188 25.9697C63.188 28.7832 61.6822 30.5908 59.4097 30.5908C58.834 30.6209 58.2615 30.4883 57.7578 30.2082C57.254 29.928 56.8392 29.5117 56.5611 29.0068H56.5181V33.4912H54.6597V21.4423H56.4585V22.9482H56.4927C56.7837 22.4457 57.2054 22.0316 57.713 21.7497C58.2207 21.4679 58.7952 21.3289 59.3755 21.3476C61.6733 21.3476 63.188 23.164 63.188 25.9697ZM61.2779 25.9697C61.2779 24.1367 60.3306 22.9316 58.8853 22.9316C57.4654 22.9316 56.5103 24.1621 56.5103 25.9697C56.5103 27.7939 57.4654 29.0156 58.8853 29.0156C60.3306 29.0156 61.2779 27.8193 61.2779 25.9697Z" fill="white"/>
<path d="M73.1529 25.9697C73.1529 28.7832 71.647 30.5908 69.3745 30.5908C68.7989 30.621 68.2264 30.4883 67.7226 30.2082C67.2188 29.9281 66.8041 29.5117 66.5259 29.0068H66.4829V33.4912H64.6245V21.4424H66.4233V22.9483H66.4575C66.7485 22.4458 67.1702 22.0316 67.6778 21.7498C68.1855 21.4679 68.76 21.329 69.3403 21.3477C71.6382 21.3477 73.1529 23.1641 73.1529 25.9697ZM71.2427 25.9697C71.2427 24.1367 70.2954 22.9317 68.8501 22.9317C67.4302 22.9317 66.4751 24.1621 66.4751 25.9697C66.4751 27.794 67.4302 29.0156 68.8501 29.0156C70.2954 29.0156 71.2427 27.8194 71.2427 25.9697H71.2427Z" fill="white"/>
<path d="M79.7388 27.0361C79.8765 28.2676 81.0728 29.0761 82.7076 29.0761C84.274 29.0761 85.4009 28.2675 85.4009 27.1572C85.4009 26.1933 84.7212 25.6162 83.1118 25.2207L81.5025 24.833C79.2222 24.2822 78.1636 23.2158 78.1636 21.4853C78.1636 19.3427 80.0308 17.871 82.6822 17.871C85.3062 17.871 87.105 19.3427 87.1656 21.4853H85.2896C85.1773 20.246 84.1528 19.498 82.6558 19.498C81.1587 19.498 80.1343 20.2548 80.1343 21.3564C80.1343 22.2343 80.7886 22.7509 82.3892 23.1464L83.7573 23.4823C86.3052 24.0849 87.3638 25.1083 87.3638 26.9247C87.3638 29.248 85.5132 30.703 82.5698 30.703C79.8159 30.703 77.9565 29.2821 77.8364 27.036L79.7388 27.0361Z" fill="white"/>
<path d="M91.3745 19.2998V21.4424H93.0962V22.9141H91.3745V27.9053C91.3745 28.6807 91.7192 29.042 92.4761 29.042C92.6805 29.0384 92.8845 29.0241 93.0874 28.999V30.4619C92.7471 30.5255 92.4013 30.5543 92.0552 30.5478C90.2222 30.5478 89.5073 29.8593 89.5073 28.1035V22.9141H88.1909V21.4424H89.5073V19.2998H91.3745Z" fill="white"/>
<path d="M94.0933 25.9697C94.0933 23.1211 95.771 21.3311 98.3872 21.3311C101.012 21.3311 102.682 23.1211 102.682 25.9697C102.682 28.8262 101.021 30.6084 98.3872 30.6084C95.7543 30.6084 94.0933 28.8262 94.0933 25.9697ZM100.789 25.9697C100.789 24.0156 99.8931 22.8623 98.3872 22.8623C96.8813 22.8623 95.9868 24.0244 95.9868 25.9697C95.9868 27.9316 96.8813 29.0762 98.3872 29.0762C99.8931 29.0762 100.789 27.9316 100.789 25.9697H100.789Z" fill="white"/>
<path d="M104.214 21.4424H105.987V22.9834H106.03C106.15 22.5021 106.432 22.0768 106.828 21.7789C107.225 21.481 107.712 21.3287 108.208 21.3476C108.422 21.3469 108.635 21.3702 108.844 21.417V23.1553C108.574 23.0726 108.292 23.0347 108.009 23.043C107.739 23.032 107.47 23.0796 107.22 23.1825C106.97 23.2854 106.746 23.4411 106.562 23.639C106.378 23.8369 106.239 24.0723 106.154 24.3289C106.07 24.5856 106.042 24.8575 106.073 25.126V30.4961H104.214L104.214 21.4424Z" fill="white"/>
<path d="M117.413 27.8369C117.163 29.4805 115.562 30.6084 113.514 30.6084C110.88 30.6084 109.246 28.8437 109.246 26.0127C109.246 23.1729 110.889 21.3311 113.436 21.3311C115.941 21.3311 117.516 23.0518 117.516 25.7969V26.4336H111.122V26.5459C111.092 26.8791 111.134 27.2148 111.244 27.5306C111.354 27.8464 111.53 28.1352 111.761 28.3778C111.991 28.6203 112.27 28.8111 112.58 28.9374C112.89 29.0637 113.223 29.1226 113.557 29.1103C113.996 29.1515 114.437 29.0498 114.814 28.8203C115.19 28.5909 115.483 28.246 115.648 27.8369L117.413 27.8369ZM111.13 25.1348H115.657C115.673 24.8352 115.628 24.5354 115.523 24.2541C115.419 23.9729 115.257 23.7164 115.048 23.5006C114.84 23.2849 114.589 23.1145 114.312 23.0003C114.034 22.8861 113.736 22.8305 113.436 22.8369C113.133 22.8351 112.833 22.8933 112.553 23.008C112.273 23.1227 112.019 23.2918 111.804 23.5054C111.59 23.7191 111.42 23.973 111.304 24.2527C111.189 24.5323 111.13 24.8321 111.13 25.1348V25.1348Z" fill="white"/>
<path d="M45.8545 8.73101C46.2441 8.70305 46.6351 8.76191 46.9992 8.90335C47.3633 9.04478 47.6915 9.26526 47.9601 9.54889C48.2286 9.83251 48.4309 10.1722 48.5523 10.5435C48.6737 10.9148 48.7112 11.3083 48.6621 11.6959C48.6621 13.6021 47.6318 14.6979 45.8545 14.6979H43.6992V8.73101H45.8545ZM44.626 13.854H45.751C46.0294 13.8707 46.308 13.825 46.5665 13.7204C46.8251 13.6158 47.057 13.4548 47.2455 13.2493C47.434 13.0437 47.5743 12.7987 47.6562 12.5321C47.738 12.2655 47.7594 11.9839 47.7187 11.708C47.7564 11.4332 47.7329 11.1534 47.6498 10.8887C47.5667 10.6241 47.426 10.3811 47.238 10.1771C47.0499 9.97322 46.8191 9.81341 46.562 9.70917C46.3049 9.60494 46.028 9.55885 45.751 9.57422H44.626V13.854Z" fill="white"/>
<path d="M49.7088 12.4443C49.6805 12.1484 49.7143 11.8499 49.8082 11.5678C49.902 11.2857 50.0538 11.0264 50.2537 10.8064C50.4536 10.5864 50.6974 10.4107 50.9692 10.2904C51.2411 10.1701 51.535 10.108 51.8323 10.108C52.1296 10.108 52.4236 10.1701 52.6954 10.2904C52.9673 10.4107 53.211 10.5864 53.4109 10.8064C53.6109 11.0264 53.7626 11.2857 53.8565 11.5678C53.9503 11.8499 53.9842 12.1484 53.9558 12.4443C53.9847 12.7406 53.9512 13.0396 53.8577 13.3221C53.7641 13.6046 53.6124 13.8644 53.4124 14.0848C53.2124 14.3052 52.9685 14.4814 52.6964 14.6019C52.4243 14.7225 52.1299 14.7847 51.8323 14.7847C51.5347 14.7847 51.2404 14.7225 50.9682 14.6019C50.6961 14.4814 50.4522 14.3052 50.2522 14.0848C50.0522 13.8644 49.9006 13.6046 49.807 13.3221C49.7134 13.0396 49.6799 12.7406 49.7088 12.4443ZM53.0418 12.4443C53.0418 11.4683 52.6033 10.8975 51.8338 10.8975C51.0613 10.8975 50.6268 11.4683 50.6268 12.4444C50.6268 13.4282 51.0613 13.9946 51.8338 13.9946C52.6033 13.9946 53.0418 13.4243 53.0418 12.4443H53.0418Z" fill="white"/>
<path d="M59.6016 14.6978H58.6797L57.749 11.3813H57.6787L56.752 14.6978H55.8389L54.5977 10.1948H55.499L56.3057 13.6308H56.3721L57.2979 10.1948H58.1504L59.0762 13.6308H59.1465L59.9492 10.1948H60.8379L59.6016 14.6978Z" fill="white"/>
<path d="M61.8818 10.1948H62.7373V10.9101H62.8037C62.9164 10.6532 63.1064 10.4378 63.3472 10.294C63.5881 10.1502 63.8679 10.0852 64.1475 10.1079C64.3666 10.0914 64.5866 10.1244 64.7912 10.2045C64.9958 10.2846 65.1797 10.4097 65.3294 10.5706C65.4791 10.7314 65.5907 10.9239 65.6559 11.1337C65.7211 11.3435 65.7382 11.5653 65.7061 11.7827V14.6977H64.8174V12.0058C64.8174 11.2822 64.5029 10.9223 63.8457 10.9223C63.6969 10.9154 63.5484 10.9407 63.4104 10.9966C63.2723 11.0524 63.148 11.1374 63.0459 11.2458C62.9437 11.3542 62.8663 11.4834 62.8187 11.6245C62.7712 11.7656 62.7547 11.9154 62.7705 12.0635V14.6977H61.8818L61.8818 10.1948Z" fill="white"/>
<path d="M67.1221 8.43701H68.0107V14.6978H67.1221V8.43701Z" fill="white"/>
<path d="M69.2459 12.4444C69.2176 12.1484 69.2514 11.8499 69.3453 11.5678C69.4392 11.2857 69.591 11.0263 69.7909 10.8064C69.9909 10.5864 70.2346 10.4106 70.5065 10.2903C70.7783 10.17 71.0724 10.1079 71.3696 10.1079C71.6669 10.1079 71.9609 10.17 72.2328 10.2903C72.5047 10.4106 72.7484 10.5864 72.9484 10.8064C73.1483 11.0263 73.3001 11.2857 73.394 11.5678C73.4878 11.8499 73.5217 12.1484 73.4934 12.4444C73.5222 12.7406 73.4888 13.0396 73.3951 13.3221C73.3015 13.6046 73.1498 13.8645 72.9498 14.0849C72.7498 14.3053 72.5059 14.4814 72.2337 14.6019C71.9616 14.7225 71.6673 14.7847 71.3696 14.7847C71.072 14.7847 70.7777 14.7225 70.5055 14.6019C70.2334 14.4814 69.9895 14.3053 69.7895 14.0849C69.5895 13.8645 69.4378 13.6046 69.3442 13.3221C69.2505 13.0396 69.2171 12.7406 69.2459 12.4444ZM72.5789 12.4444C72.5789 11.4683 72.1404 10.8975 71.3709 10.8975C70.5984 10.8975 70.1639 11.4683 70.1639 12.4444C70.1639 13.4283 70.5984 13.9947 71.3709 13.9947C72.1404 13.9947 72.5789 13.4244 72.5789 12.4444H72.5789Z" fill="white"/>
<path d="M74.4292 13.4243C74.4292 12.6138 75.0327 12.1465 76.104 12.0801L77.3237 12.0098V11.6211C77.3237 11.1455 77.0093 10.877 76.4019 10.877C75.9058 10.877 75.562 11.0591 75.4634 11.3774H74.603C74.6938 10.604 75.4214 10.1079 76.4429 10.1079C77.5718 10.1079 78.2085 10.6699 78.2085 11.6211V14.6978H77.353V14.0649H77.2827C77.14 14.2919 76.9396 14.477 76.702 14.6012C76.4643 14.7254 76.198 14.7843 75.9302 14.7719C75.7411 14.7916 75.5501 14.7714 75.3693 14.7127C75.1886 14.654 75.0221 14.5581 74.8807 14.4311C74.7393 14.3042 74.626 14.149 74.5483 13.9756C74.4705 13.8021 74.4299 13.6144 74.4292 13.4243ZM77.3237 13.0395V12.6631L76.2241 12.7334C75.604 12.7749 75.3227 12.9858 75.3227 13.3828C75.3227 13.7881 75.6743 14.0239 76.1577 14.0239C76.2994 14.0382 76.4425 14.0239 76.5785 13.9819C76.7145 13.9398 76.8406 13.8707 76.9494 13.7789C77.0582 13.6871 77.1474 13.5743 77.2117 13.4473C77.276 13.3202 77.3141 13.1816 77.3237 13.0395Z" fill="white"/>
<path d="M79.3765 12.4444C79.3765 11.0215 80.1079 10.1201 81.2456 10.1201C81.527 10.1072 81.8063 10.1746 82.0508 10.3145C82.2954 10.4544 82.495 10.661 82.6265 10.9101H82.6929V8.43701H83.5815V14.6978H82.73V13.9863H82.6597C82.5181 14.2338 82.3115 14.4378 82.0622 14.5763C81.813 14.7148 81.5306 14.7825 81.2456 14.772C80.1001 14.772 79.3765 13.8706 79.3765 12.4444ZM80.2945 12.4444C80.2945 13.3994 80.7447 13.9741 81.4976 13.9741C82.2466 13.9741 82.7095 13.3911 82.7095 12.4483C82.7095 11.5098 82.2417 10.9185 81.4976 10.9185C80.7495 10.9185 80.2944 11.4971 80.2944 12.4444H80.2945Z" fill="white"/>
<path d="M87.2581 12.4443C87.2298 12.1484 87.2636 11.8499 87.3575 11.5678C87.4513 11.2857 87.6031 11.0264 87.803 10.8064C88.003 10.5864 88.2467 10.4107 88.5185 10.2904C88.7904 10.1701 89.0844 10.108 89.3816 10.108C89.6789 10.108 89.9729 10.1701 90.2447 10.2904C90.5166 10.4107 90.7603 10.5864 90.9602 10.8064C91.1602 11.0264 91.3119 11.2857 91.4058 11.5678C91.4996 11.8499 91.5335 12.1484 91.5052 12.4443C91.534 12.7406 91.5006 13.0396 91.407 13.3221C91.3134 13.6046 91.1617 13.8644 90.9617 14.0848C90.7617 14.3052 90.5178 14.4814 90.2457 14.6019C89.9736 14.7225 89.6793 14.7847 89.3816 14.7847C89.084 14.7847 88.7897 14.7225 88.5175 14.6019C88.2454 14.4814 88.0015 14.3052 87.8015 14.0848C87.6015 13.8644 87.4499 13.6046 87.3563 13.3221C87.2627 13.0396 87.2292 12.7406 87.2581 12.4443ZM90.5911 12.4443C90.5911 11.4683 90.1526 10.8975 89.3831 10.8975C88.6106 10.8975 88.1761 11.4683 88.1761 12.4444C88.1761 13.4282 88.6107 13.9946 89.3831 13.9946C90.1526 13.9946 90.5911 13.4243 90.5911 12.4443Z" fill="white"/>
<path d="M92.6978 10.1948H93.5532V10.9101H93.6196C93.7323 10.6532 93.9223 10.4378 94.1632 10.294C94.404 10.1502 94.6838 10.0852 94.9634 10.1079C95.1825 10.0914 95.4025 10.1244 95.6071 10.2045C95.8117 10.2846 95.9956 10.4097 96.1453 10.5706C96.295 10.7314 96.4066 10.9239 96.4718 11.1337C96.537 11.3435 96.5541 11.5653 96.522 11.7827V14.6977H95.6333V12.0058C95.6333 11.2822 95.3189 10.9223 94.6616 10.9223C94.5129 10.9154 94.3644 10.9407 94.2263 10.9966C94.0883 11.0524 93.9639 11.1374 93.8618 11.2458C93.7597 11.3542 93.6822 11.4834 93.6346 11.6245C93.5871 11.7656 93.5707 11.9154 93.5864 12.0635V14.6977H92.6978V10.1948Z" fill="white"/>
<path d="M101.543 9.07373V10.2153H102.519V10.9639H101.543V13.2793C101.543 13.751 101.738 13.9575 102.18 13.9575C102.293 13.9572 102.407 13.9503 102.519 13.937V14.6772C102.359 14.7058 102.198 14.721 102.036 14.7226C101.047 14.7226 100.654 14.375 100.654 13.5068V10.9638H99.939V10.2153H100.654V9.07373H101.543Z" fill="white"/>
<path d="M103.733 8.43701H104.614V10.9185H104.684C104.802 10.6591 104.997 10.4425 105.243 10.2982C105.489 10.1539 105.773 10.0888 106.057 10.1118C106.275 10.1 106.493 10.1364 106.695 10.2184C106.897 10.3004 107.079 10.4261 107.227 10.5864C107.375 10.7468 107.486 10.9378 107.552 11.146C107.618 11.3541 107.637 11.5742 107.608 11.7905V14.6978H106.718V12.0098C106.718 11.2905 106.383 10.9263 105.755 10.9263C105.603 10.9137 105.449 10.9347 105.305 10.9878C105.161 11.0408 105.031 11.1247 104.923 11.2334C104.815 11.3421 104.732 11.4732 104.68 11.6173C104.628 11.7614 104.608 11.9152 104.622 12.0679V14.6977H103.733L103.733 8.43701Z" fill="white"/>
<path d="M112.79 13.4819C112.669 13.8935 112.407 14.2495 112.051 14.4876C111.694 14.7258 111.265 14.8309 110.839 14.7847C110.542 14.7925 110.247 14.7357 109.975 14.6182C109.702 14.5006 109.458 14.3252 109.26 14.1041C109.063 13.8829 108.915 13.6214 108.828 13.3376C108.742 13.0537 108.718 12.7544 108.758 12.4605C108.719 12.1656 108.743 11.8656 108.83 11.581C108.916 11.2963 109.063 11.0335 109.26 10.8105C109.457 10.5874 109.699 10.4092 109.971 10.288C110.243 10.1668 110.537 10.1054 110.835 10.1079C112.088 10.1079 112.843 10.9639 112.843 12.3779V12.688H109.664V12.7378C109.65 12.9031 109.671 13.0694 109.725 13.2261C109.779 13.3829 109.865 13.5266 109.978 13.6481C110.091 13.7695 110.228 13.866 110.38 13.9314C110.533 13.9968 110.697 14.0297 110.863 14.0278C111.076 14.0533 111.291 14.0151 111.482 13.9178C111.672 13.8206 111.83 13.6689 111.934 13.4819L112.79 13.4819ZM109.664 12.0308H111.938C111.949 11.8796 111.929 11.7278 111.878 11.5851C111.827 11.4424 111.747 11.3119 111.642 11.2021C111.538 11.0922 111.412 11.0054 111.272 10.9472C111.132 10.8891 110.981 10.8608 110.83 10.8643C110.676 10.8623 110.523 10.8912 110.381 10.9491C110.239 11.0071 110.109 11.0929 110.001 11.2017C109.892 11.3104 109.806 11.4397 109.748 11.5821C109.691 11.7245 109.662 11.8771 109.664 12.0308H109.664Z" fill="white"/>
</g>
<defs>
<clipPath id="clip0_141:1689">
<rect width="135" height="40" fill="white"/>
</clipPath>
</defs>
</svg>
