<svg width="84" height="87" viewBox="0 0 84 87" fill="none" xmlns="http://www.w3.org/2000/svg">
<g clip-path="url(#clip0_1_422)">
<path d="M60.5473 21.1465C62.1261 21.1465 63.6726 20.6927 65.0053 19.8381C66.338 18.9834 67.4025 17.7633 68.074 16.3203C68.7454 14.8773 68.9963 13.2711 68.7976 11.6895C68.5984 10.1078 67.9576 8.61603 66.9502 7.38857C65.9422 6.16111 64.6095 5.24866 63.1072 4.75787C61.6049 4.26709 59.9954 4.21827 58.4667 4.61711C56.938 5.01595 55.5536 5.84595 54.4746 7.01012C53.396 8.17429 52.6677 9.62453 52.375 11.1913L60.5473 12.7483V21.1465Z" fill="#F9B52D"/>
<path fill-rule="evenodd" clip-rule="evenodd" d="M60.7691 0.679443C61.2667 0.679443 61.67 1.08678 61.67 1.58926V10.3863L67.7837 4.12812C68.1331 3.77041 68.7034 3.76649 69.0577 4.11936C69.412 4.47225 69.4158 5.0483 69.0663 5.40601L62.9246 11.6934H71.6676C72.1651 11.6934 72.5684 12.1007 72.5684 12.6032C72.5684 13.1056 72.1651 13.513 71.6676 13.513H63.0107L69.265 19.5638C69.6241 19.9114 69.6365 20.4874 69.2924 20.8502C68.9484 21.2131 68.3776 21.2254 68.0184 20.8778L61.67 14.736V23.6195C61.67 24.122 61.2667 24.5293 60.7691 24.5293C60.2716 24.5293 59.8683 24.122 59.8683 23.6195L60.4067 14.8219L60.7541 14.5557C60.4046 14.9134 59.9173 14.9907 59.563 14.6378C59.2092 14.285 58.6664 13.7089 59.0159 13.3512L59.1543 13.513H59.563C59.0654 13.513 58.5254 13.1056 58.5254 12.6032C58.5254 12.1007 58.527 11.6934 59.0245 11.6934H58.5254L52.2731 5.64485C51.9139 5.29721 51.9016 4.72128 52.2459 4.35844C52.5901 3.99561 53.1604 3.98327 53.5197 4.33089L59.8683 10.4727V1.58926C59.8683 1.08678 60.2716 0.679443 60.7691 0.679443Z" fill="#262262"/>
<path d="M48.4615 12.3866C48.4615 9.88951 49.2089 7.45068 50.6057 5.39009C52.0025 3.32948 53.9835 1.74329 56.2886 0.839597C58.5938 -0.0641053 61.1159 -0.24312 63.5234 0.32603C65.9314 0.895179 68.1122 2.18592 69.7809 4.02894C71.4496 5.87196 72.5275 8.18121 72.8732 10.6538C73.2189 13.1263 72.8172 15.6467 71.7193 17.8844C70.6219 20.1221 68.88 21.9725 66.7229 23.193C64.5653 24.4135 62.0932 24.947 59.6303 24.7236L59.8172 22.6208C61.8606 22.8061 63.9111 22.3635 65.7009 21.3511C67.4908 20.3386 68.9355 18.8036 69.846 16.9473C70.7566 15.091 71.0899 13.0002 70.8029 10.9491C70.5159 8.89804 69.622 6.98241 68.2376 5.45349C66.8538 3.92463 65.044 2.8539 63.0469 2.38176C61.0497 1.90963 58.9578 2.05813 57.0452 2.80779C55.1331 3.55746 53.4897 4.87328 52.331 6.58264C51.1723 8.29203 50.5523 10.3152 50.5523 12.3866H48.4615Z" fill="#262262"/>
<path fill-rule="evenodd" clip-rule="evenodd" d="M27.671 3.05127C28.1787 2.78044 28.7137 2.79683 28.8659 3.08786L32.7213 10.4573C32.8736 10.7483 32.5855 11.2038 32.0778 11.4746C31.5702 11.7455 31.0352 11.7291 30.883 11.438L27.0275 4.06862C26.8753 3.77758 27.1634 3.3221 27.671 3.05127Z" fill="#262262"/>
<path fill-rule="evenodd" clip-rule="evenodd" d="M18.2083 1.56741C18.3355 1.00204 18.8925 0.647861 19.4523 0.776322L28.2779 2.80139C28.8378 2.92986 29.1885 3.49233 29.0613 4.0577C28.9341 4.62307 28.3771 4.97725 27.8172 4.84879L18.9917 2.82372C18.4318 2.69525 18.081 2.13278 18.2083 1.56741Z" fill="#262262"/>
<path d="M42.1654 13.3398H35.4012V16.6992H42.1654V13.3398Z" fill="white"/>
<path fill-rule="evenodd" clip-rule="evenodd" d="M56.4146 12.3599H27.5835C25.9759 12.3599 24.6727 13.6759 24.6727 15.2993V59.1104H59.3255V15.2993C59.3255 13.6759 58.0219 12.3599 56.4146 12.3599ZM27.5835 10.1204C24.7511 10.1204 22.4549 12.4391 22.4549 15.2993V61.3501H61.5429V15.2993C61.5429 12.4391 59.2469 10.1204 56.4146 10.1204H27.5835Z" fill="#262262"/>
<path fill-rule="evenodd" clip-rule="evenodd" d="M53.0878 18.6586H30.9102C30.5274 18.6586 30.2171 18.972 30.2171 19.3585V26.2171C30.2171 26.6037 30.5274 26.917 30.9102 26.917H53.0878C53.4706 26.917 53.7809 26.6037 53.7809 26.2171V19.3585C53.7809 18.972 53.4706 18.6586 53.0878 18.6586ZM30.9102 16.5591C29.3791 16.5591 28.1379 17.8124 28.1379 19.3585V26.2171C28.1379 27.7632 29.3791 29.0166 30.9102 29.0166H53.0878C54.6188 29.0166 55.86 27.7632 55.86 26.2171V19.3585C55.86 17.8124 54.6188 16.5591 53.0878 16.5591H30.9102Z" fill="#262262"/>
<path d="M30.633 36.8552C31.7813 36.8552 32.7122 35.9152 32.7122 34.7556C32.7122 33.596 31.7813 32.656 30.633 32.656C29.4847 32.656 28.5538 33.596 28.5538 34.7556C28.5538 35.9152 29.4847 36.8552 30.633 36.8552Z" fill="#F9B52D"/>
<path d="M41.999 36.8552C43.1473 36.8552 44.0782 35.9152 44.0782 34.7556C44.0782 33.596 43.1473 32.656 41.999 32.656C40.8507 32.656 39.9199 33.596 39.9199 34.7556C39.9199 35.9152 40.8507 36.8552 41.999 36.8552Z" fill="#F9B52D"/>
<path d="M53.3651 36.8552C54.5134 36.8552 55.4443 35.9152 55.4443 34.7556C55.4443 33.596 54.5134 32.656 53.3651 32.656C52.2168 32.656 51.2859 33.596 51.2859 34.7556C51.2859 35.9152 52.2168 36.8552 53.3651 36.8552Z" fill="#F9B52D"/>
<path d="M30.633 45.3935C31.7813 45.3935 32.7122 44.4535 32.7122 43.2939C32.7122 42.1343 31.7813 41.1943 30.633 41.1943C29.4847 41.1943 28.5538 42.1343 28.5538 43.2939C28.5538 44.4535 29.4847 45.3935 30.633 45.3935Z" fill="#F9B52D"/>
<path d="M41.999 45.3935C43.1473 45.3935 44.0782 44.4535 44.0782 43.2939C44.0782 42.1343 43.1473 41.1943 41.999 41.1943C40.8507 41.1943 39.9199 42.1343 39.9199 43.2939C39.9199 44.4535 40.8507 45.3935 41.999 45.3935Z" fill="#F9B52D"/>
<path d="M53.3651 45.3935C54.5134 45.3935 55.4443 44.4535 55.4443 43.2939C55.4443 42.1343 54.5134 41.1943 53.3651 41.1943C52.2168 41.1943 51.2859 42.1343 51.2859 43.2939C51.2859 44.4535 52.2168 45.3935 53.3651 45.3935Z" fill="#F9B52D"/>
<path d="M30.633 53.9316C31.7813 53.9316 32.7122 52.9916 32.7122 51.832C32.7122 50.6724 31.7813 49.7324 30.633 49.7324C29.4847 49.7324 28.5538 50.6724 28.5538 51.832C28.5538 52.9916 29.4847 53.9316 30.633 53.9316Z" fill="#F9B52D"/>
<path d="M41.999 53.9316C43.1473 53.9316 44.0782 52.9916 44.0782 51.832C44.0782 50.6724 43.1473 49.7324 41.999 49.7324C40.8507 49.7324 39.9199 50.6724 39.9199 51.832C39.9199 52.9916 40.8507 53.9316 41.999 53.9316Z" fill="#F9B52D"/>
<path d="M53.3651 53.9316C54.5134 53.9316 55.4443 52.9916 55.4443 51.832C55.4443 50.6724 54.5134 49.7324 53.3651 49.7324C52.2168 49.7324 51.2859 50.6724 51.2859 51.832C51.2859 52.9916 52.2168 53.9316 53.3651 53.9316Z" fill="#F9B52D"/>
<path fill-rule="evenodd" clip-rule="evenodd" d="M0 64.8493C0 61.6798 2.54438 59.1106 5.68303 59.1106H78.3149C81.4536 59.1106 83.9978 61.6798 83.9978 64.8493V80.9465C83.9978 84.116 81.4536 86.6852 78.3149 86.6852H5.68303C2.54438 86.6852 0 84.116 0 80.9465V64.8493ZM5.68303 61.3503C3.76922 61.3503 2.21777 62.9168 2.21777 64.8493V80.9465C2.21777 82.879 3.76922 84.4455 5.68303 84.4455H78.3149C80.2286 84.4455 81.7805 82.879 81.7805 80.9465V64.8493C81.7805 62.9168 80.2286 61.3503 78.3149 61.3503H5.68303Z" fill="#262262"/>
<path d="M13.8472 78.0629C13.0802 78.0629 12.3687 77.9417 11.7126 77.6986C11.0658 77.4469 10.5021 77.0923 10.0216 76.635C9.5503 76.1777 9.18064 75.6411 8.9127 75.0255C8.64471 74.4002 8.51074 73.7146 8.51074 72.968C8.51074 72.2214 8.64471 71.5401 8.9127 70.924C9.18064 70.2993 9.5503 69.7577 10.0216 69.3004C10.5021 68.8431 11.0658 68.4935 11.7126 68.251C12.3687 67.9987 13.0802 67.873 13.8472 67.873C14.7436 67.873 15.5429 68.0313 16.2452 68.3488C16.9567 68.6658 17.5481 69.1231 18.0194 69.7207L16.2729 71.3161C15.9587 70.9431 15.6122 70.6581 15.2333 70.4624C14.8637 70.2661 14.4479 70.1682 13.9858 70.1682C13.5885 70.1682 13.2235 70.2335 12.8908 70.3645C12.5581 70.495 12.2717 70.6864 12.0314 70.9382C11.8004 71.1807 11.6156 71.4748 11.477 71.8201C11.3476 72.1654 11.2829 72.5477 11.2829 72.968C11.2829 73.3878 11.3476 73.7706 11.477 74.1158C11.6156 74.4606 11.8004 74.7596 12.0314 75.0114C12.2717 75.2539 12.5581 75.4404 12.8908 75.5715C13.2235 75.702 13.5885 75.7672 13.9858 75.7672C14.4479 75.7672 14.8637 75.6693 15.2333 75.4736C15.6122 75.2773 15.9587 74.9929 16.2729 74.6194L18.0194 76.2153C17.5481 76.8031 16.9567 77.2603 16.2452 77.5871C15.5429 77.9041 14.7436 78.0629 13.8472 78.0629Z" fill="#262262"/>
<path d="M27.3934 68.0688H30.1379V77.8667H27.3934V68.0688ZM23.6509 77.8667H20.9064V68.0688H23.6509V77.8667ZM27.5874 74.0457H23.4569V71.75H27.5874V74.0457Z" fill="#262262"/>
<path d="M32.5728 77.8667L36.8558 68.0688H39.5588L43.8557 77.8667H41.0003L37.6459 69.4266H38.727L35.3727 77.8667H32.5728ZM34.9153 75.963L35.6222 73.9196H40.3627L41.0696 75.963H34.9153Z" fill="#262262"/>
<path d="M46.2971 77.8667V68.0688H50.7326C51.6197 68.0688 52.3821 68.2135 53.0196 68.5028C53.6665 68.792 54.1654 69.2118 54.5165 69.7626C54.8676 70.3037 55.0431 70.9475 55.0431 71.694C55.0431 72.4314 54.8676 73.0703 54.5165 73.6118C54.1654 74.1436 53.6665 74.5542 53.0196 74.8434C52.3821 75.1235 51.6197 75.2632 50.7326 75.2632H47.8218L49.0415 74.1018V77.8667H46.2971ZM52.2989 77.8667L49.887 74.2975H52.8117L55.2375 77.8667H52.2989ZM49.0415 74.3954L47.8218 73.1219H50.5662C51.1392 73.1219 51.5642 72.9958 51.8415 72.744C52.128 72.4917 52.2712 72.1421 52.2712 71.694C52.2712 71.2367 52.128 70.8822 51.8415 70.6305C51.5642 70.3782 51.1392 70.2525 50.5662 70.2525H47.8218L49.0415 68.9785V74.3954Z" fill="#262262"/>
<path d="M58.2206 77.8667V68.0688H60.9651V75.6694H65.5948V77.8667H58.2206Z" fill="#262262"/>
<path d="M69.8094 77.8667V73.7238L70.4469 75.3894L66.1085 68.0688H69.0054L72.1382 73.3737H70.4609L73.6077 68.0688H76.2688L71.9444 75.3894L72.5539 73.7238V77.8667H69.8094Z" fill="#262262"/>
</g>
<defs>
<clipPath id="clip0_1_422">
<rect width="84" height="87" fill="white"/>
</clipPath>
</defs>
</svg>
